Coordinates
version=1
nRows=13
nColumns=38
inDegrees=no

Units are S.I. units (second, meters, Newtons, ...)
If the header above contains a line with 'inDegrees', this indicates whether rotational values are in degrees (yes) or radians (no).

endheader
time	pelvis_tilt	pelvis_list	pelvis_rotation	pelvis_tx	pelvis_ty	pelvis_tz	hip_flexion_r	hip_adduction_r	hip_rotation_r	knee_angle_r	ankle_angle_r	subtalar_angle_r	mtp_angle_r	hip_flexion_l	hip_adduction_l	hip_rotation_l	knee_angle_l	ankle_angle_l	subtalar_angle_l	mtp_angle_l	lumbar_extension	lumbar_bending	lumbar_rotation	arm_flex_r	arm_add_r	arm_rot_r	elbow_flex_r	pro_sup_r	wrist_flex_r	wrist_dev_r	arm_flex_l	arm_add_l	arm_rot_l	elbow_flex_l	pro_sup_l	wrist_flex_l	wrist_dev_l
1.44	0.87015	1.45688	0.788495	0.617876	1.43753	1.05783	0.288821	-0.119463	-0.264438	0.889149	-0.211917	0	0	0.0918716	-0.0210296	-0.219788	0.249496	-0.0955896	0	0	-0.244359	0.0813084	0.0277882	-0.0752026	-0.404431	0.396149	0.562167	0.885984	0	0	0.0705789	-0.462463	0.636282	0.607895	1.22692	0	0
1.45	0.877747	1.45353	0.789912	0.616529	1.44894	1.05933	0.306888	-0.118554	-0.280346	0.861973	-0.205798	0	0	0.0749118	-0.0240239	-0.21992	0.232915	-0.104496	0	0	-0.241188	0.0862894	0.0207861	-0.0744809	-0.404729	0.397613	0.561794	0.885228	0	0	0.0778968	-0.464343	0.628716	0.620455	1.23774	0	0
1.46	0.883301	1.44924	0.794386	0.615226	1.46029	1.06056	0.324146	-0.116467	-0.296208	0.83108	-0.201691	0	0	0.0595707	-0.0279886	-0.220961	0.217507	-0.113653	0	0	-0.237128	0.0918394	0.0131144	-0.07378	-0.404393	0.398416	0.560973	0.88383	0	0	0.0846707	-0.46616	0.619257	0.633378	1.2488	0	0
1.47	0.8961	1.43179	0.786153	0.614014	1.47026	1.06235	0.401132	-0.0785713	-0.286354	0.871453	-0.205929	0	0	0.0565465	-0.0426135	-0.219878	0.206096	-0.124049	0	0	-0.231321	0.108517	0.0130204	-0.064289	-0.406343	0.405356	0.552237	0.8803	0	0	0.0962454	-0.45848	0.603735	0.636868	1.2653	0	0
1.48	0.879318	1.42587	0.813953	0.612854	1.48183	1.0628	0.414709	-0.0776113	-0.305825	0.829169	-0.202187	0	0	0.0458598	-0.0457854	-0.220295	0.192883	-0.132016	0	0	-0.221189	0.112635	0.00298481	-0.0626277	-0.403979	0.410931	0.546354	0.876501	0	0	0.0985524	-0.459391	0.585741	0.649346	1.28281	0	0
1.49	0.670323	1.44348	1.04075	0.613174	1.49551	1.05832	0.430842	-0.0582676	-0.094274	0.813169	-0.13297	0	0	0.0292717	-0.0120341	-0.222731	0.179207	-0.133744	0	0	-0.197431	0.0728227	-0.0231202	-0.0860016	-0.391024	0.396375	0.5638	0.880481	0	0	0.0800888	-0.493036	0.573713	0.69977	1.28498	0	0
1.5	0.681104	1.44049	1.04009	0.6121	1.507	1.05869	0.437923	-0.0564557	-0.105231	0.761541	-0.126084	0	0	0.0145361	-0.0161355	-0.223125	0.167999	-0.138407	0	0	-0.193803	0.0767515	-0.0297232	-0.0865413	-0.389208	0.394765	0.562212	0.882122	0	0	0.0874054	-0.496771	0.569519	0.714043	1.28892	0	0
1.51	0.690961	1.4381	1.03966	0.611083	1.51861	1.0588	0.444343	-0.0553481	-0.118245	0.707945	-0.125684	0	0	-0.000415048	-0.0199749	-0.223727	0.15779	-0.143348	0	0	-0.190973	0.0801192	-0.0362442	-0.0867228	-0.387708	0.393983	0.560999	0.883646	0	0	0.0927184	-0.500399	0.560535	0.729543	1.29714	0	0
1.52	0.699694	1.43549	1.0408	0.610028	1.53023	1.05858	0.447645	-0.0539315	-0.13092	0.648947	-0.127478	0	0	-0.0141619	-0.0240255	-0.224334	0.149406	-0.146506	0	0	-0.187943	0.0835918	-0.0432755	-0.087003	-0.38638	0.392883	0.560178	0.884001	0	0	0.0970133	-0.503847	0.549535	0.745457	1.30689	0	0
1.53	0.708434	1.43298	1.04182	0.609024	1.54184	1.05808	0.449137	-0.0520403	-0.14253	0.5868	-0.131458	0	0	-0.0272519	-0.0282727	-0.223949	0.142687	-0.148398	0	0	-0.185384	0.086839	-0.0503513	-0.0869403	-0.385161	0.392232	0.559571	0.884131	0	0	0.100521	-0.507282	0.536936	0.761998	1.31682	0	0
1.54	0.711371	1.43041	1.04861	0.60803	1.5535	1.05731	0.448755	-0.0505293	-0.151964	0.520514	-0.13791	0	0	-0.0392235	-0.0321119	-0.223889	0.137145	-0.149093	0	0	-0.18249	0.0892455	-0.0576834	-0.0864887	-0.38375	0.392075	0.558372	0.88421	0	0	0.103532	-0.510485	0.523549	0.777992	1.32694	0	0
1.55	0.711073	1.42755	1.05852	0.607104	1.56523	1.05623	0.446616	-0.0488089	-0.158747	0.450465	-0.146299	0	0	-0.0500509	-0.0360734	-0.224085	0.133056	-0.147683	0	0	-0.179087	0.0911825	-0.0650256	-0.0859387	-0.382109	0.392129	0.556649	0.884006	0	0	0.106101	-0.513778	0.510354	0.793498	1.33694	0	0
1.56	0.706829	1.42509	1.07226	0.606202	1.57704	1.05488	0.442446	-0.047651	-0.165715	0.376591	-0.157283	0	0	-0.0603485	-0.0394035	-0.224971	0.130533	-0.145684	0	0	-0.175833	0.0921721	-0.0722473	-0.085368	-0.380343	0.392645	0.554596	0.883519	0	0	0.108399	-0.517298	0.497749	0.808749	1.34617	0	0
